<svg xmlns="http://www.w3.org/2000/svg" viewBox="0 0 16 16" width="16" height="16" shape-rendering="crispEdges">
  <!-- Cup body -->
  <rect x="2" y="4" width="9" height="8" fill="#FFFFFF"/>
  <rect x="2" y="4" width="9" height="1" fill="#FFFFFF"/>
  <rect x="2" y="4" width="1" height="8" fill="#FFFFFF"/>
  <rect x="10" y="4" width="1" height="8" fill="#C0C0C0"/>
  <rect x="2" y="11" width="9" height="1" fill="#C0C0C0"/>
  <!-- Handle -->
  <rect x="11" y="5" width="2" height="1" fill="#C0C0C0"/>
  <rect x="13" y="5" width="1" height="4" fill="#C0C0C0"/>
  <rect x="11" y="9" width="2" height="1" fill="#C0C0C0"/>
  <!-- Saucer -->
  <rect x="1" y="12" width="12" height="2" fill="#C0C0C0"/>
  <rect x="1" y="12" width="12" height="1" fill="#DFDFDF"/>
  <rect x="12" y="12" width="1" height="2" fill="#808080"/>
  <rect x="1" y="13" width="12" height="1" fill="#808080"/>
  <!-- Steam -->
  <rect x="4" y="1" width="1" height="2" fill="#C0C0C0"/>
  <rect x="6" y="2" width="1" height="1" fill="#C0C0C0"/>
  <rect x="8" y="1" width="1" height="2" fill="#C0C0C0"/>
</svg>
