<svg xmlns="http://www.w3.org/2000/svg" viewBox="0 0 32 32" width="32" height="32" shape-rendering="crispEdges">
  <!-- Hair -->
  <rect x="11" y="2" width="10" height="3" fill="#5C3317"/>
  <rect x="10" y="3" width="1" height="2" fill="#5C3317"/>
  <rect x="21" y="3" width="1" height="2" fill="#5C3317"/>
  <!-- Head -->
  <rect x="11" y="5" width="10" height="8" fill="#F5D0A9"/>
  <rect x="10" y="6" width="1" height="6" fill="#F5D0A9"/>
  <rect x="21" y="6" width="1" height="6" fill="#E8B88A"/>
  <!-- Eyes -->
  <rect x="13" y="7" width="2" height="2" fill="#FFFFFF"/>
  <rect x="14" y="8" width="1" height="1" fill="#333333"/>
  <rect x="17" y="7" width="2" height="2" fill="#FFFFFF"/>
  <rect x="18" y="8" width="1" height="1" fill="#333333"/>
  <!-- Glasses frames -->
  <rect x="12" y="7" width="1" height="2" fill="#808080"/>
  <rect x="15" y="7" width="2" height="1" fill="#808080"/>
  <rect x="19" y="7" width="1" height="2" fill="#808080"/>
  <rect x="12" y="9" width="3" height="1" fill="#808080"/>
  <rect x="17" y="9" width="3" height="1" fill="#808080"/>
  <!-- Mouth -->
  <rect x="14" y="11" width="4" height="1" fill="#C07060"/>
  <!-- Neck -->
  <rect x="14" y="13" width="4" height="2" fill="#F5D0A9"/>
  <!-- Shirt collar -->
  <rect x="12" y="15" width="3" height="2" fill="#FFFFFF"/>
  <rect x="17" y="15" width="3" height="2" fill="#FFFFFF"/>
  <!-- Tie -->
  <rect x="15" y="15" width="2" height="1" fill="#800000"/>
  <rect x="15" y="16" width="2" height="1" fill="#800000"/>
  <rect x="15" y="17" width="2" height="4" fill="#800000"/>
  <rect x="15" y="21" width="2" height="1" fill="#600000"/>
  <!-- Shirt body -->
  <rect x="8" y="17" width="7" height="10" fill="#D0D8E8"/>
  <rect x="17" y="17" width="7" height="10" fill="#B8C0D0"/>
  <!-- Shoulders -->
  <rect x="6" y="18" width="2" height="8" fill="#D0D8E8"/>
  <rect x="24" y="18" width="2" height="8" fill="#B8C0D0"/>
  <!-- Pocket -->
  <rect x="18" y="20" width="3" height="3" fill="#A8B0C0"/>
  <!-- Pen in pocket -->
  <rect x="19" y="19" width="1" height="2" fill="#333399"/>
  <!-- Bottom -->
  <rect x="6" y="26" width="20" height="6" fill="#D0D8E8"/>
</svg>
