<svg xmlns="http://www.w3.org/2000/svg" viewBox="0 0 16 16" width="16" height="16" shape-rendering="crispEdges">
  <!-- Red circle -->
  <rect x="4" y="1" width="8" height="1" fill="#CC0000"/>
  <rect x="2" y="2" width="12" height="1" fill="#CC0000"/>
  <rect x="1" y="3" width="14" height="2" fill="#CC0000"/>
  <rect x="1" y="5" width="14" height="2" fill="#CC0000"/>
  <rect x="1" y="7" width="14" height="2" fill="#CC0000"/>
  <rect x="1" y="9" width="14" height="2" fill="#CC0000"/>
  <rect x="2" y="11" width="12" height="1" fill="#CC0000"/>
  <rect x="4" y="12" width="8" height="1" fill="#CC0000"/>
  <!-- X mark -->
  <rect x="4" y="3" width="2" height="1" fill="#FFFFFF"/>
  <rect x="5" y="4" width="2" height="1" fill="#FFFFFF"/>
  <rect x="6" y="5" width="2" height="1" fill="#FFFFFF"/>
  <rect x="7" y="6" width="2" height="1" fill="#FFFFFF"/>
  <rect x="6" y="7" width="2" height="1" fill="#FFFFFF"/>
  <rect x="5" y="8" width="2" height="1" fill="#FFFFFF"/>
  <rect x="4" y="9" width="2" height="1" fill="#FFFFFF"/>
  <rect x="10" y="3" width="2" height="1" fill="#FFFFFF"/>
  <rect x="9" y="4" width="2" height="1" fill="#FFFFFF"/>
  <rect x="8" y="5" width="2" height="1" fill="#FFFFFF"/>
  <rect x="8" y="7" width="2" height="1" fill="#FFFFFF"/>
  <rect x="9" y="8" width="2" height="1" fill="#FFFFFF"/>
  <rect x="10" y="9" width="2" height="1" fill="#FFFFFF"/>
</svg>
