<svg xmlns="http://www.w3.org/2000/svg" viewBox="0 0 16 16" width="16" height="16" shape-rendering="crispEdges">
  <!-- Shield body -->
  <rect x="3" y="1" width="10" height="2" fill="#0000AA"/>
  <rect x="2" y="3" width="12" height="3" fill="#0000AA"/>
  <rect x="2" y="6" width="12" height="2" fill="#0000AA"/>
  <rect x="3" y="8" width="10" height="2" fill="#0000AA"/>
  <rect x="4" y="10" width="8" height="1" fill="#0000AA"/>
  <rect x="5" y="11" width="6" height="1" fill="#0000AA"/>
  <rect x="6" y="12" width="4" height="1" fill="#0000AA"/>
  <rect x="7" y="13" width="2" height="1" fill="#0000AA"/>
  <!-- Highlight -->
  <rect x="3" y="1" width="1" height="1" fill="#4040FF"/>
  <rect x="4" y="1" width="8" height="1" fill="#4040FF"/>
  <rect x="2" y="3" width="1" height="3" fill="#4040FF"/>
  <!-- Check on shield -->
  <rect x="4" y="6" width="1" height="1" fill="#FFFFFF"/>
  <rect x="5" y="7" width="1" height="1" fill="#FFFFFF"/>
  <rect x="6" y="8" width="1" height="1" fill="#FFFFFF"/>
  <rect x="7" y="7" width="1" height="1" fill="#FFFFFF"/>
  <rect x="8" y="6" width="1" height="1" fill="#FFFFFF"/>
  <rect x="9" y="5" width="1" height="1" fill="#FFFFFF"/>
  <rect x="10" y="4" width="1" height="1" fill="#FFFFFF"/>
</svg>
