<svg xmlns="http://www.w3.org/2000/svg" viewBox="0 0 16 16" width="16" height="16" shape-rendering="crispEdges">
  <!-- Bubble -->
  <rect x="1" y="1" width="12" height="9" fill="#FFFFFF"/>
  <rect x="1" y="1" width="12" height="1" fill="#FFFFFF"/>
  <rect x="1" y="1" width="1" height="9" fill="#FFFFFF"/>
  <rect x="12" y="1" width="1" height="9" fill="#808080"/>
  <rect x="1" y="9" width="12" height="1" fill="#808080"/>
  <rect x="0" y="2" width="1" height="7" fill="#000"/>
  <rect x="13" y="2" width="1" height="7" fill="#000"/>
  <rect x="1" y="0" width="12" height="1" fill="#000"/>
  <rect x="1" y="10" width="5" height="1" fill="#000"/>
  <!-- Tail -->
  <rect x="3" y="10" width="1" height="1" fill="#000"/>
  <rect x="2" y="11" width="2" height="1" fill="#000"/>
  <rect x="1" y="12" width="2" height="1" fill="#000"/>
  <!-- Lines inside -->
  <rect x="3" y="3" width="8" height="1" fill="#000"/>
  <rect x="3" y="5" width="8" height="1" fill="#000"/>
  <rect x="3" y="7" width="5" height="1" fill="#000"/>
</svg>
